<?xml version="1.0" encoding="utf-8"?>
<!-- Generator: Adobe Illustrator 25.2.3, SVG Export Plug-In . SVG Version: 6.00 Build 0)  -->
<svg version="1.1" id="Layer_1" xmlns="http://www.w3.org/2000/svg" xmlns:xlink="http://www.w3.org/1999/xlink" x="0px" y="0px"
	 viewBox="0 0 292.39 274.39" style="enable-background:new 0 0 292.39 274.39;" xml:space="preserve">
<style type="text/css">
	.st0{fill:#F27776;}
	.st1{fill:#EDE576;}
	.st2{fill:#96D7E4;}
	.st3{fill:#334673;}
	.st4{font-family:'Exo-DemiBold';}
	.st5{font-size:77.9005px;}
</style>
<path class="st0" d="M102.55,113.22c-1.36,0-2.68,0.14-3.96,0.39c-0.22,0.01-0.43,0.03-0.65,0.03c-11.32,0-20.49-9.17-20.49-20.49
	c0-0.31,0.03-0.61,0.05-0.91c0.3-1.19,0.5-2.41,0.59-3.68c0.03-0.36,0.05-0.72,0.05-1.08c0-0.11,0.02-0.22,0.02-0.33l0-0.05
	c0-0.03,0-0.07,0-0.1c0-0.86-0.07-1.71-0.17-2.54l-0.02-0.25c-0.03-0.49-0.07-0.97-0.07-1.47c0-11.32,9.52-20.89,20.61-20.89
	c0.6,0,1.19,0.04,1.78,0.09l4.1,0.42c11.09,0,20.08-8.99,20.08-20.08c0-11.09-8.99-20.08-20.08-20.08S84.3,31.19,84.3,42.28
	c0,1.33,0.14,2.62,0.38,3.88c0.01,0.21,0.03,0.42,0.03,0.63c0,11.09-9.57,20.58-20.89,20.58c-0.12,0-0.23-0.01-0.35-0.02
	c-1.84-0.54-3.79-0.85-5.81-0.85c-11.32,0-20.49,9.17-20.49,20.49c0,0.03,0,0.05,0,0.08c0,0.03,0,0.05,0,0.08
	c0,11.32,9.17,20.49,20.49,20.49c1.4,0,2.77-0.14,4.1-0.41c0.11,0,0.21-0.01,0.32-0.01c11.32,0,20.49,9.17,20.49,20.49
	c0,0.61-0.04,1.22-0.09,1.82l-0.43,4.18c0,11.32,9.17,20.49,20.49,20.49c11.32,0,20.49-9.17,20.49-20.49
	S113.87,113.22,102.55,113.22z"/>
<path class="st1" d="M196.31,64.15c11.32,0,20.49-9.17,20.49-20.49c0-11.32-9.17-20.49-20.49-20.49s-20.49,9.17-20.49,20.49
	c0,1.36,0.14,2.68,0.39,3.96c0.01,0.22,0.03,0.43,0.03,0.65c0,11.32-9.17,20.49-20.49,20.49c-0.37,0-0.74-0.03-1.11-0.06
	c-1.62-0.41-3.3-0.65-5.05-0.65c-11.32,0-20.49,9.17-20.49,20.49c0,11.32,9.17,20.49,20.49,20.49s20.49-9.17,20.49-20.49l-0.19-2.95
	c-0.03-0.49-0.07-0.97-0.07-1.47c0-11.32,9.17-20.49,20.49-20.49c0.61,0,1.22,0.04,1.82,0.09L196.31,64.15z"/>
<path class="st1" d="M128.89,88.58c0,11.32,9.17,20.49,20.49,20.49c11.32,0,20.49-9.17,20.49-20.49s-9.17-20.49-20.49-20.49
	c-1.36,0-2.68,0.14-3.96,0.39c-0.22,0.01-0.43,0.03-0.65,0.03c-11.32,0-20.49-9.17-20.49-20.49c0-0.37,0.03-0.74,0.06-1.11
	c0.41-1.62,0.65-3.3,0.65-5.05c0-11.32-9.17-20.49-20.49-20.49c-11.32,0-20.49,9.17-20.49,20.49s9.17,20.49,20.49,20.49l2.95-0.19
	c0.49-0.03,0.97-0.07,1.47-0.07c11.32,0,20.49,9.17,20.49,20.49c0,0.61-0.04,1.22-0.09,1.82L128.89,88.58z"/>
<path class="st2" d="M173.99,135.35c0,11.32,9.17,20.49,20.49,20.49c11.32,0,20.49-9.17,20.49-20.49s-9.17-20.49-20.49-20.49
	c-1.36,0-2.68,0.14-3.96,0.39c-0.22,0.01-0.43,0.03-0.65,0.03c-11.32,0-20.49-9.17-20.49-20.49c0-0.37,0.03-0.74,0.06-1.11
	c0.41-1.62,0.65-3.3,0.65-5.05c0-11.32-9.17-20.49-20.49-20.49c-11.32,0-20.49,9.17-20.49,20.49s9.17,20.49,20.49,20.49l2.95-0.19
	c0.49-0.03,0.97-0.07,1.47-0.07c11.32,0,20.49,9.17,20.49,20.49c0,0.61-0.04,1.22-0.09,1.82L173.99,135.35z"/>
<path class="st2" d="M214.54,131.17c-0.05-0.6-0.09-1.2-0.09-1.82c0-11.32,9.17-20.49,20.49-20.49c0.5,0,0.98,0.04,1.47,0.07
	l2.95,0.19c11.32,0,20.49-9.17,20.49-20.49s-9.17-20.49-20.49-20.49c-11.32,0-20.49,9.17-20.49,20.49c0,1.74,0.24,3.43,0.65,5.05
	c0.02,0.37,0.06,0.74,0.06,1.11c0,11.32-9.17,20.49-20.49,20.49c-0.22,0-0.43-0.03-0.65-0.03c-1.28-0.25-2.6-0.39-3.96-0.39
	c-11.32,0-20.49,9.17-20.49,20.49s9.17,20.49,20.49,20.49c11.32,0,20.49-9.17,20.49-20.49L214.54,131.17z"/>
<text transform="matrix(1 0 0 1 28.0963 230.898)" class="st3 st4 st5">DoEPy</text>
</svg>
