<?xml version="1.0" encoding="UTF-8" standalone="no"?>
<svg
   version="1.1"
   viewBox="0 0 15.999999 15.999999"
   id="svg11"
   width="16"
   height="16"
   xmlns="http://www.w3.org/2000/svg"
   xmlns:svg="http://www.w3.org/2000/svg">
  <defs
     id="defs1">
    <style
       id="style1">
      .cls-1 {
        fill: #f27776;
      }

      .cls-2 {
        fill: #96d7e4;
      }

      .cls-3 {
        fill: #334673;
      }

      .cls-4 {
        fill: #ede576;
      }
    </style>
  </defs>
  <!-- Generator: Adobe Illustrator 28.6.0, SVG Export Plug-In . SVG Version: 1.2.0 Build 709)  -->
  <g
     id="g11">
    <g
       id="g12">
      <g
         id="g13"
         transform="matrix(0.07059301,0,0,0.07059301,-2.4841209,1.7451063)"
         style="stroke-width:3.98133;stroke-dasharray:none">
        <path
           class="cls-1"
           d="m 102.55,113.22 c -1.36,0 -2.68,0.14 -3.96,0.39 -0.22,0 -0.43,0.03 -0.65,0.03 -11.32,0 -20.49,-9.17 -20.49,-20.49 0,-0.31 0.03,-0.61 0.05,-0.91 0.3,-1.19 0.5,-2.41 0.59,-3.68 0.03,-0.36 0.05,-0.72 0.05,-1.08 0,-0.11 0.02,-0.22 0.02,-0.33 V 87.1 87 c 0,-0.86 -0.07,-1.71 -0.17,-2.54 l -0.02,-0.25 c -0.03,-0.49 -0.07,-0.97 -0.07,-1.47 0,-11.32 9.52,-20.89 20.61,-20.89 0.6,0 1.19,0.04 1.78,0.09 l 4.1,0.42 c 11.09,0 20.08,-8.99 20.08,-20.08 0,-11.09 -8.99,-20.08 -20.08,-20.08 -11.09,0 -20.08,8.99 -20.08,20.08 0,1.33 0.14,2.62 0.38,3.88 0,0.21 0.03,0.42 0.03,0.63 0,11.09 -9.57,20.58 -20.89,20.58 -0.12,0 -0.23,-0.01 -0.35,-0.02 -1.84,-0.54 -3.79,-0.85 -5.81,-0.85 -11.32,0 -20.49,9.17 -20.49,20.49 v 0.08 0.08 c 0,11.32 9.17,20.49 20.49,20.49 1.4,0 2.77,-0.14 4.1,-0.41 0.11,0 0.21,-0.01 0.32,-0.01 11.32,0 20.49,9.17 20.49,20.49 0,0.61 -0.04,1.22 -0.09,1.82 l -0.43,4.18 c 0,11.32 9.17,20.49 20.49,20.49 11.32,0 20.49,-9.17 20.49,-20.49 0,-11.32 -9.17,-20.49 -20.49,-20.49 z"
           id="path1"
           style="stroke:#000000;stroke-width:3.98133;stroke-dasharray:none;stroke-opacity:1" />
        <path
           class="cls-4"
           d="m 196.31,64.15 c 11.32,0 20.49,-9.17 20.49,-20.49 0,-11.32 -9.17,-20.49 -20.49,-20.49 -11.32,0 -20.49,9.17 -20.49,20.49 0,1.36 0.14,2.68 0.39,3.96 0,0.22 0.03,0.43 0.03,0.65 0,11.32 -9.17,20.49 -20.49,20.49 -0.37,0 -0.74,-0.03 -1.11,-0.06 -1.62,-0.41 -3.3,-0.65 -5.05,-0.65 -11.32,0 -20.49,9.17 -20.49,20.49 0,11.32 9.17,20.49 20.49,20.49 11.32,0 20.49,-9.17 20.49,-20.49 l -0.19,-2.95 c -0.03,-0.49 -0.07,-0.97 -0.07,-1.47 0,-11.32 9.17,-20.49 20.49,-20.49 0.61,0 1.22,0.04 1.82,0.09 z"
           id="path2"
           style="stroke:#000000;stroke-width:3.98133;stroke-dasharray:none;stroke-opacity:1" />
        <path
           class="cls-4"
           d="m 128.89,88.58 c 0,11.32 9.17,20.49 20.49,20.49 11.32,0 20.49,-9.17 20.49,-20.49 0,-11.32 -9.17,-20.49 -20.49,-20.49 -1.36,0 -2.68,0.14 -3.96,0.39 -0.22,0 -0.43,0.03 -0.65,0.03 -11.32,0 -20.49,-9.17 -20.49,-20.49 0,-0.37 0.03,-0.74 0.06,-1.11 0.41,-1.62 0.65,-3.3 0.65,-5.05 0,-11.32 -9.17,-20.49 -20.49,-20.49 -11.32,0 -20.49,9.17 -20.49,20.49 0,11.32 9.17,20.49 20.49,20.49 l 2.95,-0.19 c 0.49,-0.03 0.97,-0.07 1.47,-0.07 11.32,0 20.49,9.17 20.49,20.49 0,0.61 -0.04,1.22 -0.09,1.82 z"
           id="path3"
           style="stroke:#000000;stroke-width:3.98133;stroke-dasharray:none;stroke-opacity:1" />
        <path
           class="cls-2"
           d="m 173.99,135.35 c 0,11.32 9.17,20.49 20.49,20.49 11.32,0 20.49,-9.17 20.49,-20.49 0,-11.32 -9.17,-20.49 -20.49,-20.49 -1.36,0 -2.68,0.14 -3.96,0.39 -0.22,0 -0.43,0.03 -0.65,0.03 -11.32,0 -20.49,-9.17 -20.49,-20.49 0,-0.37 0.03,-0.74 0.06,-1.11 0.41,-1.62 0.65,-3.3 0.65,-5.05 0,-11.32 -9.17,-20.49 -20.49,-20.49 -11.32,0 -20.49,9.17 -20.49,20.49 0,11.32 9.17,20.49 20.49,20.49 l 2.95,-0.19 c 0.49,-0.03 0.97,-0.07 1.47,-0.07 11.32,0 20.49,9.17 20.49,20.49 0,0.61 -0.04,1.22 -0.09,1.82 z"
           id="path4"
           style="stroke:#000000;stroke-width:3.98133;stroke-dasharray:none;stroke-opacity:1" />
        <path
           class="cls-2"
           d="m 214.54,131.17 c -0.05,-0.6 -0.09,-1.2 -0.09,-1.82 0,-11.32 9.17,-20.49 20.49,-20.49 0.5,0 0.98,0.04 1.47,0.07 l 2.95,0.19 c 11.32,0 20.49,-9.17 20.49,-20.49 0,-11.32 -9.17,-20.49 -20.49,-20.49 -11.32,0 -20.49,9.17 -20.49,20.49 0,1.74 0.24,3.43 0.65,5.05 0.02,0.37 0.06,0.74 0.06,1.11 0,11.32 -9.17,20.49 -20.49,20.49 -0.22,0 -0.43,-0.03 -0.65,-0.03 -1.28,-0.25 -2.6,-0.39 -3.96,-0.39 -11.32,0 -20.49,9.17 -20.49,20.49 0,11.32 9.17,20.49 20.49,20.49 11.32,0 20.49,-9.17 20.49,-20.49 z"
           id="path5"
           style="stroke:#000000;stroke-width:3.98133;stroke-dasharray:none;stroke-opacity:1" />
      </g>
    </g>
  </g>
</svg>
