<?xml version="1.0" encoding="UTF-8"?>
<svg xmlns="http://www.w3.org/2000/svg" version="1.1" viewBox="0 0 292.39 274.39">
  <defs>
    <style>
      .cls-1 {
        fill: #f27776;
      }

      .cls-2 {
        fill: #96d7e4;
      }

      .cls-3 {
        fill: #334673;
      }

      .cls-4 {
        fill: #ede576;
      }
    </style>
  </defs>
  <!-- Generator: Adobe Illustrator 28.6.0, SVG Export Plug-In . SVG Version: 1.2.0 Build 709)  -->
  <g>
    <g id="Layer_1">
      <path class="cls-1" d="M102.55,113.22c-1.36,0-2.68.14-3.96.39-.22,0-.43.03-.65.03-11.32,0-20.49-9.17-20.49-20.49,0-.31.03-.61.05-.91.3-1.19.5-2.41.59-3.68.03-.36.05-.72.05-1.08,0-.11.02-.22.02-.33v-.05s0-.07,0-.1c0-.86-.07-1.71-.17-2.54l-.02-.25c-.03-.49-.07-.97-.07-1.47,0-11.32,9.52-20.89,20.61-20.89.6,0,1.19.04,1.78.09l4.1.42c11.09,0,20.08-8.99,20.08-20.08s-8.99-20.08-20.08-20.08-20.08,8.99-20.08,20.08c0,1.33.14,2.62.38,3.88,0,.21.03.42.03.63,0,11.09-9.57,20.58-20.89,20.58-.12,0-.23-.01-.35-.02-1.84-.54-3.79-.85-5.81-.85-11.32,0-20.49,9.17-20.49,20.49,0,.03,0,.05,0,.08,0,.03,0,.05,0,.08,0,11.32,9.17,20.49,20.49,20.49,1.4,0,2.77-.14,4.1-.41.11,0,.21-.01.32-.01,11.32,0,20.49,9.17,20.49,20.49,0,.61-.04,1.22-.09,1.82l-.43,4.18c0,11.32,9.17,20.49,20.49,20.49s20.49-9.17,20.49-20.49-9.17-20.49-20.49-20.49Z"/>
      <path class="cls-4" d="M196.31,64.15c11.32,0,20.49-9.17,20.49-20.49s-9.17-20.49-20.49-20.49c-11.32,0-20.49,9.17-20.49,20.49,0,1.36.14,2.68.39,3.96,0,.22.03.43.03.65,0,11.32-9.17,20.49-20.49,20.49-.37,0-.74-.03-1.11-.06-1.62-.41-3.3-.65-5.05-.65-11.32,0-20.49,9.17-20.49,20.49,0,11.32,9.17,20.49,20.49,20.49s20.49-9.17,20.49-20.49l-.19-2.95c-.03-.49-.07-.97-.07-1.47,0-11.32,9.17-20.49,20.49-20.49.61,0,1.22.04,1.82.09l4.18.43Z"/>
      <path class="cls-4" d="M128.89,88.58c0,11.32,9.17,20.49,20.49,20.49s20.49-9.17,20.49-20.49-9.17-20.49-20.49-20.49c-1.36,0-2.68.14-3.96.39-.22,0-.43.03-.65.03-11.32,0-20.49-9.17-20.49-20.49,0-.37.03-.74.06-1.11.41-1.62.65-3.3.65-5.05,0-11.32-9.17-20.49-20.49-20.49s-20.49,9.17-20.49,20.49,9.17,20.49,20.49,20.49l2.95-.19c.49-.03.97-.07,1.47-.07,11.32,0,20.49,9.17,20.49,20.49,0,.61-.04,1.22-.09,1.82l-.43,4.18Z"/>
      <path class="cls-2" d="M173.99,135.35c0,11.32,9.17,20.49,20.49,20.49s20.49-9.17,20.49-20.49-9.17-20.49-20.49-20.49c-1.36,0-2.68.14-3.96.39-.22,0-.43.03-.65.03-11.32,0-20.49-9.17-20.49-20.49,0-.37.03-.74.06-1.11.41-1.62.65-3.3.65-5.05,0-11.32-9.17-20.49-20.49-20.49s-20.49,9.17-20.49,20.49,9.17,20.49,20.49,20.49l2.95-.19c.49-.03.97-.07,1.47-.07,11.32,0,20.49,9.17,20.49,20.49,0,.61-.04,1.22-.09,1.82l-.43,4.18Z"/>
      <path class="cls-2" d="M214.54,131.17c-.05-.6-.09-1.2-.09-1.82,0-11.32,9.17-20.49,20.49-20.49.5,0,.98.04,1.47.07l2.95.19c11.32,0,20.49-9.17,20.49-20.49,0-11.32-9.17-20.49-20.49-20.49-11.32,0-20.49,9.17-20.49,20.49,0,1.74.24,3.43.65,5.05.02.37.06.74.06,1.11,0,11.32-9.17,20.49-20.49,20.49-.22,0-.43-.03-.65-.03-1.28-.25-2.6-.39-3.96-.39-11.32,0-20.49,9.17-20.49,20.49s9.17,20.49,20.49,20.49c11.32,0,20.49-9.17,20.49-20.49l-.43-4.18Z"/>
      <g>
        <path class="cls-3" d="M33.39,173.88h23.14c16.75,0,19.94,15.5,19.94,28.74,0,15.35-5.69,28.28-19.94,28.28h-23.14v-57.02ZM55.98,222.56c8.18,0,11.45-8.41,11.45-20.02,0-15.73-4.36-20.41-11.45-20.41h-13.55v40.43h13.55Z"/>
        <path class="cls-3" d="M99.92,189.15c14.1,0,18.62,5.22,18.62,21.65,0,15.35-4.36,20.49-18.62,20.49s-18.7-5.69-18.7-20.49c0-16.9,4.83-21.65,18.7-21.65ZM99.92,223.58c6.93,0,9.58-.86,9.58-12.78,0-12.77-2.18-14.02-9.58-14.02s-9.66,1.25-9.66,14.02c0,11.84,3.04,12.78,9.66,12.78Z"/>
        <path class="cls-3" d="M123.84,185.1c0-9.04,6.15-11.37,11.45-11.22,0,0,21.73.78,24.93,1.25v7.4h-23.29c-4.05,0-4.05,2.26-4.05,4.36v11.29l23.91.78v7.4l-23.91.78v11.3c.08,4.13,2.57,4.05,4.83,4.05h22.51v7.32c-2.8.39-24.15,1.32-24.15,1.32-5.14.23-12.23-.93-12.23-10.83v-35.21Z"/>
        <path class="cls-3" d="M167.07,173.88h24.15c6.78,0,15.03,2.34,15.03,17.21,0,16.98-8.8,18.15-15.03,17.99-3.12-.16-14.72-1.4-15.11-1.56v23.37h-9.04v-57.02ZM190.67,200.83c3.66,0,6.47-1.56,6.47-9.66-.08-8.02-3.74-9.04-6.47-9.04h-14.57v18.69h14.57Z"/>
        <path class="cls-3" d="M220.12,189.53l8.18,30.15c1.09,3.74,4.13,3.04,4.52,3.04l9.58-33.18h9.58l-15.74,54.45-5.76,7.95h-6.23l6.39-21.03c-4.28,0-9.04-1.87-11.29-9.81l-8.8-31.55h9.58Z"/>
      </g>
    </g>
  </g>
</svg>